#!OML:ASF C:\Vicon Data\Big\jianyuan-13\jianyuan\Session 1\Capture.male.ASF
:FULLY-SPECIFIED
:DEGREES
251
root -5.537229 17.279757 0.613847 3.385124 12.797963 1.640541
lowerback -13.576965 -2.384600 -3.550059 
upperback 1.710173 -2.662621 0.726805 
thorax 9.694890 -1.498480 2.207853 
lowerneck -0.875963 -2.387261 3.642194 
upperneck 15.469951 -3.817321 -4.416819 
head 4.617685 -2.313544 -2.155075 
rclavicle 0.000000 0.000000 
rhumerus -40.639048 -19.390357 -75.269626 
rradius 35.141965 
rwrist 27.074481 
rhand -17.972160 -17.883133 
rfingers 0.000000 
rthumb 8.297211 -47.700166 
lclavicle 0.000000 0.000000 
lhumerus -21.750333 12.040332 92.869090 
lradius 35.605190 
lwrist -39.075618 
lhand -17.864959 1.330490 
lfingers 0.000000 
lthumb 8.400697 31.143400 
rfemur -47.427104 1.246515 11.797387 
rtibia 38.267882 
rfoot -12.240467 -5.448740 
rtoes -34.711139 
lfemur 9.374125 -5.643247 -25.556801 
ltibia 17.137879 
lfoot -16.588028 -4.805990 
ltoes -24.651835 
252
root -5.542025 17.256205 0.724086 3.670468 12.874770 1.795515
lowerback -13.605445 -2.409132 -3.623787 
upperback 1.715410 -2.680188 0.709973 
thorax 9.721402 -1.510725 2.226340 
lowerneck -0.991709 -2.340981 3.768853 
upperneck 15.683058 -3.776497 -4.434274 
head 4.701616 -2.294338 -2.187243 
rclavicle 0.000000 0.000000 
rhumerus -40.531291 -19.252491 -75.304050 
rradius 35.049699 
rwrist 27.172317 
rhand -18.143649 -17.906768 
rfingers 0.000000 
rthumb 8.131679 -47.730247 
lclavicle 0.000000 0.000000 
lhumerus -21.760793 12.306105 92.790585 
lradius 35.590121 
lwrist -39.160111 
lhand -17.677209 1.405707 
lfingers 0.000000 
lthumb 8.581858 31.211314 
rfemur -46.746358 1.551901 11.549605 
rtibia 37.013924 
rfoot -12.365887 -5.495980 
rtoes -35.374497 
lfemur 9.401732 -5.909763 -25.697091 
ltibia 17.420975 
lfoot -16.813537 -4.700835 
ltoes -24.980055 
253
root -5.545226 17.239074 0.836676 3.953048 12.968541 1.864233
lowerback -13.614860 -2.395612 -3.552039 
upperback 1.668899 -2.672757 0.682571 
thorax 9.669756 -1.501456 2.158506 
lowerneck -0.921885 -2.356948 3.562606 
upperneck 15.845364 -3.838419 -4.205984 
head 4.746937 -2.331507 -2.087911 
rclavicle 0.000000 0.000000 
rhumerus -40.669862 -19.330104 -75.203777 
rradius 35.014996 
rwrist 27.486980 
rhand -17.806051 -17.814831 
rfingers 0.000000 
rthumb 8.457501 -47.625491 
lclavicle 0.000000 0.000000 
lhumerus -21.977006 12.173357 92.664397 
lradius 35.702920 
lwrist -39.101011 
lhand -17.678697 1.312649 
lfingers 0.000000 
lthumb 8.580436 31.118301 
rfemur -46.056870 1.833865 11.424144 
rtibia 35.829413 
rfoot -12.446110 -5.665753 
rtoes -35.753618 
lfemur 9.344847 -5.911768 -25.609897 
ltibia 17.743293 
lfoot -16.801716 -4.895456 
ltoes -25.116434 
254
root -5.548504 17.213222 0.953564 4.330100 13.022703 2.006980
lowerback -13.815777 -2.303836 -3.523287 
upperback 1.694494 -2.548278 0.689901 
thorax 9.804286 -1.442261 2.171385 
lowerneck -0.885586 -2.462792 3.475767 
upperneck 15.823491 -3.970480 -4.248579 
head 4.729429 -2.402606 -2.090357 
rclavicle 0.000000 0.000000 
rhumerus -40.567331 -19.262869 -75.154450 
rradius 34.919804 
rwrist 27.131155 
rhand -18.204879 -17.867526 
rfingers 0.000000 
rthumb 8.072630 -47.693280 
lclavicle 0.000000 0.000000 
lhumerus -21.999241 12.128854 92.751529 
lradius 35.620005 
lwrist -39.460556 
lhand -18.002159 0.997342 
lfingers 0.000000 
lthumb 8.268250 30.815513 
rfemur -45.551693 1.989313 11.278219 
rtibia 34.821357 
rfoot -12.622236 -5.705911 
rtoes -35.808130 
lfemur 9.280621 -5.787116 -25.612043 
ltibia 17.998193 
lfoot -16.738168 -5.098397 
ltoes -25.447375 
255
root -5.554135 17.192188 1.070543 4.629387 13.130973 2.087891
lowerback -13.819700 -2.295233 -3.428395 
upperback 1.637711 -2.545855 0.594789 
thorax 9.734104 -1.431725 2.016483 
lowerneck -0.684908 -2.480893 3.606806 
upperneck 15.910117 -4.032646 -4.163217 
head 4.720002 -2.428986 -2.086328 
rclavicle 0.000000 0.000000 
rhumerus -40.714602 -19.231912 -75.302633 
rradius 34.933761 
rwrist 26.931233 
rhand -18.073392 -17.995835 
rfingers 0.000000 
rthumb 8.199499 -47.816726 
lclavicle 0.000000 0.000000 
lhumerus -22.257620 11.884250 92.508280 
lradius 35.729739 
lwrist -39.221233 
lhand -18.052557 1.195684 
lfingers 0.000000 
lthumb 8.219610 31.015811 
rfemur -45.035405 2.202159 11.179245 
rtibia 33.983535 
rfoot -12.759457 -5.839858 
rtoes -35.626771 
lfemur 9.266127 -5.654572 -25.503684 
ltibia 18.227589 
lfoot -16.623338 -5.312913 
ltoes -26.009780 
256
root -5.556395 17.170990 1.192639 4.961987 13.162385 2.315738
lowerback -13.802765 -2.317668 -3.569071 
upperback 1.617456 -2.556498 0.633086 
thorax 9.711691 -1.445329 2.135752 
lowerneck -0.660295 -2.461843 3.697923 
upperneck 16.014085 -4.007439 -4.299657 
head 4.743542 -2.425156 -2.144676 
rclavicle 0.000000 0.000000 
rhumerus -40.733998 -19.666644 -74.852360 
rradius 34.795008 
rwrist 27.718514 
rhand -17.766465 -17.811091 
rfingers 0.000000 
rthumb 8.495723 -47.620170 
lclavicle 0.000000 0.000000 
lhumerus -22.470494 11.743153 92.546728 
lradius 35.949940 
lwrist -38.878353 
lhand -18.039903 1.329299 
lfingers 0.000000 
lthumb 8.231832 31.148913 
rfemur -44.551153 2.409525 10.927463 
rtibia 33.269281 
rfoot -12.946210 -6.110524 
rtoes -34.953911 
lfemur 9.226813 -5.521240 -25.577947 
ltibia 18.515282 
lfoot -16.573813 -5.403121 
ltoes -27.798818 
257
root -5.557894 17.149788 1.313166 5.309515 13.197960 2.424867
lowerback -13.839715 -2.251033 -3.386542 
upperback 1.607931 -2.489045 0.536282 
thorax 9.704063 -1.399928 1.942421 
lowerneck -0.557905 -2.521904 3.566772 
upperneck 16.021272 -4.112351 -4.116233 
head 4.731945 -2.475187 -2.068482 
rclavicle 0.000000 0.000000 
rhumerus -40.773836 -19.473963 -75.031775 
rradius 34.789598 
rwrist 27.280478 
rhand -17.939138 -17.889670 
rfingers 0.000000 
rthumb 8.329063 -47.705452 
lclavicle 0.000000 0.000000 
lhumerus -22.629161 11.548518 92.363598 
lradius 36.021131 
lwrist -38.824868 
lhand -18.069812 1.274454 
lfingers 0.000000 
lthumb 8.202927 31.095196 
rfemur -44.165907 2.458801 10.891052 
rtibia 32.678231 
rfoot -13.030557 -6.198689 
rtoes -35.414286 
lfemur 9.151875 -5.518972 -25.579911 
ltibia 18.771051 
lfoot -16.393906 -5.419630 
ltoes -27.690784 
258
root -5.563169 17.128987 1.432087 5.592586 13.195753 2.491379
lowerback -13.849277 -2.221799 -3.272462 
upperback 1.660227 -2.465710 0.516466 
thorax 9.759215 -1.382669 1.860685 
lowerneck -0.554063 -2.517076 3.937507 
upperneck 15.981947 -4.091530 -4.325886 
head 4.707267 -2.453927 -2.192265 
rclavicle 0.000000 0.000000 
rhumerus -40.730595 -19.851133 -74.912027 
rradius 34.768334 
rwrist 27.688180 
rhand -17.934817 -17.912422 
rfingers 0.000000 
rthumb 8.333205 -47.728015 
lclavicle 0.000000 0.000000 
lhumerus -22.676118 11.700394 92.203447 
lradius 36.020426 
lwrist -38.998959 
lhand -18.053030 1.172968 
lfingers 0.000000 
lthumb 8.219153 30.993106 
rfemur -43.743597 2.691710 10.874105 
rtibia 32.170037 
rfoot -13.119249 -6.558006 
rtoes -35.153248 
lfemur 9.147537 -5.574858 -25.519614 
ltibia 19.024865 
lfoot -16.313521 -5.557380 
ltoes -27.029686 
259
root -5.566204 17.105177 1.557171 5.873041 13.135399 2.637377
lowerback -13.844926 -2.129528 -3.271569 
upperback 1.687863 -2.347229 0.573678 
thorax 9.782299 -1.328047 1.948405 
lowerneck -0.445853 -2.585471 3.592835 
upperneck 15.953025 -4.193855 -4.139606 
head 4.687895 -2.513339 -2.078820 
rclavicle 0.000000 0.000000 
rhumerus -40.729437 -19.855962 -74.641522 
rradius 34.683296 
rwrist 27.805515 
rhand -17.792047 -17.903092 
rfingers 0.000000 
rthumb 8.471001 -47.713193 
lclavicle 0.000000 0.000000 
lhumerus -22.917701 11.574331 92.302360 
lradius 36.204263 
lwrist -38.997102 
lhand -18.230562 1.099260 
lfingers 0.000000 
lthumb 8.047801 30.926033 
rfemur -43.343545 2.802692 10.842777 
rtibia 31.794965 
rfoot -13.235578 -6.758357 
rtoes -34.754971 
lfemur 9.197604 -5.406346 -25.538746 
ltibia 19.310816 
lfoot -16.223364 -5.630233 
ltoes -28.263486 
260
root -5.569909 17.083263 1.683465 6.109845 13.052892 2.723759
lowerback -13.820398 -2.151622 -3.233835 
upperback 1.773294 -2.384547 0.607516 
thorax 9.864694 -1.346197 1.954534 
lowerneck -0.492750 -2.545922 3.753697 
upperneck 15.904401 -4.110918 -4.372588 
head 4.674542 -2.474161 -2.173831 
rclavicle 0.000000 0.000000 
rhumerus -40.503633 -19.354054 -74.910980 
rradius 34.695934 
rwrist 27.265716 
rhand -17.956089 -18.140767 
rfingers 0.000000 
rthumb 8.312748 -47.957229 
lclavicle 0.000000 0.000000 
lhumerus -23.013884 11.696054 92.165108 
lradius 36.327911 
lwrist -38.719247 
lhand -18.241104 1.256291 
lfingers 0.000000 
lthumb 8.037609 31.083488 
rfemur -42.943926 2.831598 10.961024 
rtibia 31.544653 
rfoot -13.320277 -6.863856 
rtoes -34.923068 
lfemur 9.313395 -5.348142 -25.509949 
ltibia 19.567273 
lfoot -16.154061 -5.711752 
ltoes -28.230790 
261
root -5.575194 17.056161 1.808120 6.381082 12.966402 2.777983
lowerback -13.812828 -2.062471 -3.024409 
upperback 1.866610 -2.293034 0.541302 
thorax 9.944938 -1.289748 1.784137 
lowerneck -0.556108 -2.575736 3.663984 
upperneck 15.863416 -4.161701 -4.195164 
head 4.677038 -2.489131 -2.106265 
rclavicle 0.000000 0.000000 
rhumerus -40.474043 -19.639329 -74.920570 
rradius 34.725679 
rwrist 27.333337 
rhand -17.878383 -18.101793 
rfingers 0.000000 
rthumb 8.387717 -47.915219 
lclavicle 0.000000 0.000000 
lhumerus -22.975316 11.518166 92.013959 
lradius 36.361113 
lwrist -38.380410 
lhand -18.253088 1.313707 
lfingers 0.000000 
lthumb 8.026047 31.141327 
rfemur -42.617134 2.887820 11.098275 
rtibia 31.310782 
rfoot -13.262070 -6.912745 
rtoes -34.513309 
lfemur 9.344548 -5.282822 -25.462223 
ltibia 19.894833 
lfoot -16.012178 -5.765701 
ltoes -28.542826 
